<svg height="155" preserveAspectRatio="xMidYMid" viewBox="0 0 512 155" width="512" xmlns="http://www.w3.org/2000/svg"><path d="m263.69628 54.6346328c23.521068 0 40.263224 17.8972896 40.263224 40.6258569 0 23.0945373-16.92042 40.5847503-40.263224 40.5847503-23.352573 0-40.263224-17.320903-40.263224-40.5847503 0-22.8932376 16.856114-40.6258569 40.263224-40.6258569zm84.541863 0c23.521068 0 40.263224 17.8972896 40.263224 40.6258569 0 23.0945373-16.929373 40.5847503-40.263224 40.5847503-23.352572 0-40.263224-17.320903-40.263224-40.5847503 0-22.8932376 16.856114-40.6258569 40.263224-40.6258569zm136.019434.0783058c14.182156 0 27.742423 8.5781571 27.742423 29.1606385v49.7486549h-20.106378v-45.5346263c0-8.2671313-4.056115-14.502868-13.564337-14.502868-8.886334 0-14.18704 6.8625094-14.18704 15.1296407v44.9127376h-20.568725v-45.5395103c0-8.2671313-4.207517-14.502868-13.564337-14.502868-9.041806 0-14.343326 6.7069558-14.343326 15.1296407v44.9127376h-20.724197v-76.7318689h19.795434v9.3604019c4.206703-7.4846423 14.030753-11.5427104 22.444973-11.5427104 10.447567 0 18.861787 4.5246474 22.757545 12.787139 6.074811-9.3604833 14.18704-12.787139 24.317965-12.787139zm-267.407262-33.9970442v112.9063376h-20.729081v-112.9063376zm131.387828 52.4382423c-12.182181 0-22.093329 9.9184738-22.093329 22.101469 0 12.1838093 9.911148 22.1022833 22.093329 22.1022833 12.181367 0 22.093329-9.918474 22.093329-22.1022833-.004884-12.1829952-9.916032-22.101469-22.093329-22.101469zm-84.541863.2608026c-12.044617 0-21.841806 9.7993055-21.841806 21.8504343 0 12.0503144 9.797189 21.8499464 21.841806 21.8499464s21.836922-9.799632 21.836922-21.8499464c0-12.0511288-9.792305-21.8504343-21.836922-21.8504343z" fill="#222"/><path d="m154.341545 68.588627h-45.131701l39.086194-22.5664203-8.583529-14.8714429-39.086194 22.5663389 22.561373-39.0831008-14.871605-8.58867382-22.5613739 39.08303572v-45.1283638h-17.1680357v45.1326779l-22.5700019-39.08734982-14.8668031 8.58435972 22.5656877 39.0831008-39.0862753-22.5620248-8.58411552 14.8671287 39.08629162 22.5664204h-45.1314569v17.1687682h45.1271428l-39.08197752 22.5662579 8.58411552 14.871605 39.0819612-22.562187-22.5656878 39.082938 14.8711173 8.584343 22.5656878-39.087008v45.132515h17.1682798v-45.128445l22.5613739 39.082938 14.870791-8.584343-22.565443-39.087008 39.086194 22.566257 8.584343-14.871605-39.082124-22.562188h45.126817v-17.168524zm-77.1707723 31.931869c-12.9452159 0-23.43796-10.492337-23.43796-23.4382041 0-12.9456229 10.4927441-23.4386111 23.43796-23.4386111 12.9452973 0 23.4376343 10.4929882 23.4376343 23.4386111 0 12.9458671-10.492337 23.4382041-23.4376343 23.4382041z" fill="#625df5"/></svg>